<svg width="70" height="128" viewBox="0 0 70 128" fill="none" xmlns="http://www.w3.org/2000/svg">
<path d="M12 125.943L3.27273 125.943L3.27273 124.886L11.0625 124.886L11.0625 120.83L12 120.83L12 125.943ZM12 106.404L12 107.512L3.27273 104.308L3.27273 103.217L12 100.012L12 101.12L4.65341 103.728L4.65341 103.796L12 106.404ZM8.59091 105.995L8.59091 101.529L9.52841 101.529L9.52841 105.995L8.59091 105.995ZM12 85.8675L3.27273 88.2538L3.27273 87.18L10.3807 85.3561L10.3807 85.2709L3.27273 83.4129L3.27273 82.2198L10.3807 80.3618L10.3807 80.2766L3.27272 78.4527L3.27272 77.3788L12 79.7652L12 80.8561L5.04545 82.7823L5.04545 82.8504L12 84.7766L12 85.8675ZM12 64.1821L3.27272 64.1821L3.27272 58.9491L4.21022 58.9491L4.21022 63.1253L7.15909 63.1253L7.15909 59.3412L8.09659 59.3412L8.09659 63.1253L12 63.1253L12 64.1821ZM3.27272 44.2023L12 44.2023L12 45.2591L3.27272 45.2591L3.27272 44.2023ZM12 30.2033L3.27272 30.2033L3.27272 27.2545C3.27272 26.5727 3.3892 26.013 3.62215 25.5755C3.85227 25.138 4.16903 24.8141 4.57244 24.6039C4.97585 24.3937 5.43465 24.2886 5.94886 24.2886C6.46306 24.2886 6.91903 24.3937 7.31676 24.6039C7.71448 24.8141 8.02698 25.1366 8.25426 25.5712C8.47869 26.0059 8.5909 26.5613 8.5909 27.2374L8.5909 29.6238L7.63636 29.6238L7.63636 27.2715C7.63636 26.8056 7.56818 26.4306 7.43181 26.1465C7.29545 25.8596 7.10227 25.6522 6.85227 25.5244C6.59943 25.3937 6.29829 25.3283 5.94886 25.3283C5.59943 25.3283 5.29403 25.3937 5.03267 25.5244C4.7713 25.655 4.5696 25.8638 4.42755 26.1508C4.28267 26.4377 4.21022 26.817 4.21022 27.2886L4.21022 29.1465L12 29.1465L12 30.2033ZM8.07954 26.0954L12 23.9477L12 25.1749L8.07954 27.2886L8.07954 26.0954ZM3.27272 10.6476L3.27272 9.38619L10.517 6.42028L10.517 6.31801L3.27272 3.3521L3.27272 2.09074L12 2.09074L12 3.07938L5.36931 3.07938L5.36931 3.1646L12 5.89188L12 6.84642L5.36931 9.57369L5.36931 9.65892L12 9.65892L12 10.6476L3.27272 10.6476Z" fill="#253377"/>
<path fill-rule="evenodd" clip-rule="evenodd" d="M70 0H13V128H32.6367C31.2792 127.672 29.9979 127.255 28.7926 126.748C25.3954 125.311 22.7358 123.215 20.8139 120.458C18.9115 117.701 17.8826 114.343 17.7273 110.383H28.3558C28.5111 112.46 29.1518 114.188 30.2777 115.566C31.4036 116.944 32.8693 117.973 34.6747 118.653C36.4995 119.332 38.5379 119.672 40.7898 119.672C43.1387 119.672 45.1965 119.322 46.9631 118.624C48.7491 117.905 50.1468 116.915 51.1562 115.653C52.1657 114.372 52.6802 112.877 52.6996 111.169C52.6802 109.616 52.224 108.335 51.331 107.325C50.438 106.296 49.1858 105.442 47.5746 104.763C45.9827 104.064 44.1191 103.443 41.9837 102.899L35.1989 101.152C30.2874 99.8902 26.4048 97.978 23.5511 95.4155C20.7169 92.8336 19.2997 89.4072 19.2997 85.1364C19.2997 81.6226 20.2509 78.5457 22.1534 75.9055C24.0753 73.2654 26.6863 71.2173 29.9865 69.7614C33.2867 68.286 37.0237 67.5483 41.1974 67.5483C45.4295 67.5483 49.1373 68.286 52.321 69.7614C55.5242 71.2173 58.0381 73.246 59.8629 75.8473C61.6877 78.4292 62.6293 81.3994 62.6875 84.7578H52.2919C52.0201 82.2147 50.8748 80.2346 48.8558 78.8175C46.8563 77.4003 44.255 76.6918 41.0518 76.6918C38.8 76.6918 36.8684 77.0315 35.2571 77.7109C33.6458 78.3904 32.4131 79.3125 31.559 80.4773C30.7048 81.642 30.268 82.9718 30.2486 84.4666C30.2486 85.709 30.5301 86.7865 31.093 87.6989C31.6754 88.6113 32.4616 89.3878 33.4517 90.0284C34.4418 90.6496 35.5386 91.1738 36.7422 91.6009C37.9458 92.0279 39.1591 92.3871 40.3821 92.6783L45.973 94.076C48.2249 94.6001 50.3894 95.3087 52.4666 96.2017C54.5632 97.0947 56.4366 98.2206 58.0867 99.5795C59.7562 100.938 61.0762 102.579 62.0469 104.501C63.0175 106.423 63.5028 108.674 63.5028 111.256C63.5028 114.751 62.6098 117.828 60.8239 120.487C59.0379 123.127 56.456 125.195 53.0781 126.69C51.8646 127.223 50.5586 127.66 49.16 128H70V0Z" fill="#253377"/>
</svg>
