<svg width="151" height="208" viewBox="0 0 151 208" fill="none" xmlns="http://www.w3.org/2000/svg">
<path d="M13.0568 205V196.273H14.1136V204.062H18.1705V205H13.0568ZM32.5956 205H31.4876L34.6921 196.273H35.7831L38.9876 205H37.8796L35.2717 197.653H35.2035L32.5956 205ZM33.0046 201.591H37.4706V202.528H33.0046V201.591ZM53.1325 205L50.7462 196.273H51.82L53.6439 203.381H53.7291L55.5871 196.273H56.7802L58.6382 203.381H58.7234L60.5473 196.273H61.6212L59.2348 205H58.1439L56.2177 198.045H56.1496L54.2234 205H53.1325ZM74.8179 205V196.273H80.0509V197.21H75.8747V200.159H79.6588V201.097H75.8747V205H74.8179ZM94.7977 196.273V205H93.7409V196.273H94.7977ZM108.797 205V196.273H111.746C112.427 196.273 112.987 196.389 113.425 196.622C113.862 196.852 114.186 197.169 114.396 197.572C114.606 197.976 114.711 198.435 114.711 198.949C114.711 199.463 114.606 199.919 114.396 200.317C114.186 200.714 113.863 201.027 113.429 201.254C112.994 201.479 112.439 201.591 111.763 201.591H109.376V200.636H111.728C112.194 200.636 112.569 200.568 112.853 200.432C113.14 200.295 113.348 200.102 113.476 199.852C113.606 199.599 113.672 199.298 113.672 198.949C113.672 198.599 113.606 198.294 113.476 198.033C113.345 197.771 113.136 197.57 112.849 197.428C112.562 197.283 112.183 197.21 111.711 197.21H109.853V205H108.797ZM112.905 201.08L115.052 205H113.825L111.711 201.08H112.905ZM128.352 196.273H129.614L132.58 203.517H132.682L135.648 196.273H136.909V205H135.921V198.369H135.835L133.108 205H132.154L129.426 198.369H129.341V205H128.352V196.273Z" fill="#253377"/>
<path d="M19.64 177.2C19.64 180.293 18.4 182.653 15.92 184.28C13.7867 185.693 11.1067 186.4 7.88 186.4C5.93333 186.4 3.76 185.947 1.36 185.04L1.4 178.68H2.6C2.76 180.787 3.38667 182.307 4.48 183.24C4.98667 183.667 5.73333 184.027 6.72 184.32C7.70667 184.613 8.6 184.747 9.4 184.72C11.24 184.693 12.8533 184.2 14.24 183.24C15.6 182.253 16.3067 180.933 16.36 179.28C16.36 177.547 15.7467 176.16 14.52 175.12C13.32 174.08 11.6533 173.44 9.52 173.2C3.84 172.507 1 170.133 1 166.08C1 163.253 2.08 161.107 4.24 159.64C6.08 158.36 8.32 157.72 10.96 157.72C11.7333 157.72 12.6533 157.84 13.72 158.08C14.7867 158.293 15.4667 158.4 15.76 158.4C16.08 158.4 16.2933 158.2 16.4 157.8H17.52V164.96H16.32C16.1333 162.987 15.5333 161.56 14.52 160.68C13.5333 159.8 12.0533 159.373 10.08 159.4C6.18667 159.453 4.26667 161.2 4.32 164.64C4.37333 167.707 6.50667 169.453 10.72 169.88C16.6667 170.52 19.64 172.96 19.64 177.2ZM53.7478 161.72C55.9345 164.333 57.0278 167.76 57.0278 172C57.0278 176.213 55.8811 179.693 53.5878 182.44C51.2945 185.187 48.4278 186.56 44.9878 186.56C41.5745 186.56 38.6411 185.16 36.1878 182.36C33.7878 179.533 32.6145 176.053 32.6678 171.92C32.7211 167.76 33.8945 164.36 36.1878 161.72C38.5078 159.053 41.4678 157.72 45.0678 157.72C48.6945 157.72 51.5878 159.053 53.7478 161.72ZM45.0278 185.16C47.5078 185.16 49.3878 183.973 50.6678 181.6C51.9478 179.227 52.5878 176.08 52.5878 172.16C52.5878 168.213 52.0278 165.12 50.9078 162.88C49.5745 160.267 47.5211 158.96 44.7478 158.96C42.0011 158.96 39.9878 160.2 38.7078 162.68C37.6411 164.787 37.1078 167.933 37.1078 172.12C37.1078 180.813 39.7478 185.16 45.0278 185.16ZM92.0188 176.44H93.2988L92.7788 186H70.9788V184.76H74.7388V159.68H70.9788V158.44H82.0588V159.68H78.2988V184.76L84.4188 184.64C85.1388 184.64 86.0321 184.44 87.0988 184.04C88.1654 183.64 88.9521 183.187 89.4588 182.68C91.0588 181.187 91.9121 179.107 92.0188 176.44ZM118.4 184.76V186H106.96V184.76H110.72V159.68H106.96V158.44H118.4V159.68H114.68V184.76H118.4ZM149.835 177.2C149.835 180.293 148.595 182.653 146.115 184.28C143.982 185.693 141.302 186.4 138.075 186.4C136.129 186.4 133.955 185.947 131.555 185.04L131.595 178.68H132.795C132.955 180.787 133.582 182.307 134.675 183.24C135.182 183.667 135.929 184.027 136.915 184.32C137.902 184.613 138.795 184.747 139.595 184.72C141.435 184.693 143.049 184.2 144.435 183.24C145.795 182.253 146.502 180.933 146.555 179.28C146.555 177.547 145.942 176.16 144.715 175.12C143.515 174.08 141.849 173.44 139.715 173.2C134.035 172.507 131.195 170.133 131.195 166.08C131.195 163.253 132.275 161.107 134.435 159.64C136.275 158.36 138.515 157.72 141.155 157.72C141.929 157.72 142.849 157.84 143.915 158.08C144.982 158.293 145.662 158.4 145.955 158.4C146.275 158.4 146.489 158.2 146.595 157.8H147.715V164.96H146.515C146.329 162.987 145.729 161.56 144.715 160.68C143.729 159.8 142.249 159.373 140.275 159.4C136.382 159.453 134.462 161.2 134.515 164.64C134.569 167.707 136.702 169.453 140.915 169.88C146.862 170.52 149.835 172.96 149.835 177.2Z" fill="#253377"/>
<path fill-rule="evenodd" clip-rule="evenodd" d="M103 0H46V128H65.6367C64.2792 127.672 62.9979 127.255 61.7926 126.748C58.3954 125.311 55.7358 123.215 53.8139 120.458C51.9115 117.701 50.8826 114.343 50.7273 110.383H61.3558C61.5111 112.46 62.1518 114.188 63.2777 115.566C64.4036 116.944 65.8693 117.973 67.6747 118.653C69.4995 119.332 71.5379 119.672 73.7898 119.672C76.1387 119.672 78.1965 119.322 79.9631 118.624C81.7491 117.905 83.1468 116.915 84.1562 115.653C85.1657 114.372 85.6802 112.877 85.6996 111.169C85.6802 109.616 85.224 108.335 84.331 107.325C83.438 106.296 82.1858 105.442 80.5746 104.763C78.9827 104.064 77.1191 103.443 74.9837 102.899L68.1989 101.152C63.2874 99.8902 59.4048 97.978 56.5511 95.4155C53.7169 92.8336 52.2997 89.4072 52.2997 85.1364C52.2997 81.6226 53.2509 78.5457 55.1534 75.9055C57.0753 73.2654 59.6863 71.2173 62.9865 69.7614C66.2867 68.286 70.0237 67.5483 74.1974 67.5483C78.4295 67.5483 82.1373 68.286 85.321 69.7614C88.5242 71.2173 91.0381 73.246 92.8629 75.8473C94.6877 78.4292 95.6293 81.3994 95.6875 84.7578H85.2919C85.0201 82.2147 83.8748 80.2346 81.8558 78.8175C79.8563 77.4003 77.255 76.6918 74.0518 76.6918C71.8 76.6918 69.8684 77.0315 68.2571 77.7109C66.6458 78.3904 65.4131 79.3125 64.559 80.4773C63.7048 81.642 63.268 82.9718 63.2486 84.4666C63.2486 85.709 63.5301 86.7865 64.093 87.6989C64.6754 88.6113 65.4616 89.3878 66.4517 90.0284C67.4418 90.6496 68.5386 91.1738 69.7422 91.6009C70.9458 92.0279 72.1591 92.3871 73.3821 92.6783L78.973 94.076C81.2249 94.6001 83.3894 95.3087 85.4666 96.2017C87.5632 97.0947 89.4366 98.2206 91.0867 99.5795C92.7562 100.938 94.0762 102.579 95.0469 104.501C96.0175 106.423 96.5028 108.674 96.5028 111.256C96.5028 114.751 95.6098 117.828 93.8239 120.487C92.0379 123.127 89.456 125.195 86.0781 126.69C84.8646 127.223 83.5586 127.66 82.16 128H103V0Z" fill="#253377"/>
</svg>
